<svg width="51" height="39" viewBox="0 0 51 39" fill="none" xmlns="http://www.w3.org/2000/svg">
<path d="M30.8751 3.33859L31.5608 7.60646M32.9323 16.1422L33.618 20.4101M34.9895 28.9458L35.6752 33.2137M5.97918 7.33866C3.22926 7.78049 1.30701 10.0495 1.68573 12.4065L2.71432 18.8084C5.46424 18.3665 8.00051 19.9191 8.37923 22.2762C8.75794 24.6333 6.8357 26.9023 4.08577 27.3441L5.11436 33.7459C5.49308 36.103 8.02934 37.6556 10.7793 37.2138L45.6336 31.6137C48.3835 31.1718 50.3057 28.9029 49.927 26.5458L48.8984 20.144C46.1485 20.5858 43.6122 19.0332 43.2335 16.6761C42.8548 14.319 44.777 12.0501 47.527 11.6082L46.4984 5.20642C46.1197 2.84934 43.5834 1.29672 40.8335 1.73856L5.97918 7.33866Z" stroke="white" stroke-width="2" stroke-linecap="round" stroke-linejoin="round"/>
</svg>
