<svg width="222" height="39" viewBox="0 0 222 39" fill="none" xmlns="http://www.w3.org/2000/svg">
<path d="M0.662125 24.704C0.662125 21.952 1.22213 19.552 2.34213 17.504C3.46213 15.424 5.01413 13.824 6.99813 12.704C8.98213 11.552 11.2541 10.976 13.8141 10.976C17.1101 10.976 19.8301 11.808 21.9741 13.472C24.1501 15.104 25.6061 17.408 26.3421 20.384H19.0941C18.7101 19.232 18.0541 18.336 17.1261 17.696C16.2301 17.024 15.1101 16.688 13.7661 16.688C11.8461 16.688 10.3261 17.392 9.20613 18.8C8.08613 20.176 7.52613 22.144 7.52613 24.704C7.52613 27.232 8.08613 29.2 9.20613 30.608C10.3261 31.984 11.8461 32.672 13.7661 32.672C16.4861 32.672 18.2621 31.456 19.0941 29.024H26.3421C25.6061 31.904 24.1501 34.192 21.9741 35.888C19.7981 37.584 17.0781 38.432 13.8141 38.432C11.2541 38.432 8.98213 37.872 6.99813 36.752C5.01413 35.6 3.46213 34 2.34213 31.952C1.22213 29.872 0.662125 27.456 0.662125 24.704ZM34.6731 8.24C33.4891 8.24 32.4971 7.872 31.6971 7.136C30.9291 6.368 30.5451 5.424 30.5451 4.304C30.5451 3.184 30.9291 2.256 31.6971 1.52C32.4971 0.751998 33.4891 0.367998 34.6731 0.367998C35.8571 0.367998 36.8331 0.751998 37.6011 1.52C38.4011 2.256 38.8011 3.184 38.8011 4.304C38.8011 5.424 38.4011 6.368 37.6011 7.136C36.8331 7.872 35.8571 8.24 34.6731 8.24ZM37.9851 11.408V38H31.2651V11.408H37.9851ZM59.3605 11.024C62.5285 11.024 65.0885 12.032 67.0405 14.048C68.9925 16.032 69.9685 18.816 69.9685 22.4V38H63.2485V23.312C63.2485 21.2 62.7205 19.584 61.6645 18.464C60.6085 17.312 59.1685 16.736 57.3445 16.736C55.4885 16.736 54.0165 17.312 52.9285 18.464C51.8725 19.584 51.3445 21.2 51.3445 23.312V38H44.6245V11.408H51.3445V14.72C52.2405 13.568 53.3765 12.672 54.7525 12.032C56.1605 11.36 57.6965 11.024 59.3605 11.024ZM101.079 24.128C101.079 25.088 101.015 25.952 100.887 26.72H81.4469C81.6069 28.64 82.2789 30.144 83.4629 31.232C84.6469 32.32 86.1029 32.864 87.8309 32.864C90.3269 32.864 92.1029 31.792 93.1589 29.648H100.407C99.6389 32.208 98.1669 34.32 95.9909 35.984C93.8149 37.616 91.1429 38.432 87.9749 38.432C85.4149 38.432 83.1109 37.872 81.0629 36.752C79.0469 35.6 77.4629 33.984 76.3109 31.904C75.1909 29.824 74.6309 27.424 74.6309 24.704C74.6309 21.952 75.1909 19.536 76.3109 17.456C77.4309 15.376 78.9989 13.776 81.0149 12.656C83.0309 11.536 85.3509 10.976 87.9749 10.976C90.5029 10.976 92.7589 11.52 94.7429 12.608C96.7589 13.696 98.3109 15.248 99.3989 17.264C100.519 19.248 101.079 21.536 101.079 24.128ZM94.1189 22.208C94.0869 20.48 93.4629 19.104 92.2469 18.08C91.0309 17.024 89.5429 16.496 87.7829 16.496C86.1189 16.496 84.7109 17.008 83.5589 18.032C82.4389 19.024 81.7509 20.416 81.4949 22.208H94.1189ZM116.725 24.704C116.725 21.952 117.285 19.552 118.405 17.504C119.525 15.424 121.077 13.824 123.061 12.704C125.045 11.552 127.317 10.976 129.877 10.976C133.173 10.976 135.893 11.808 138.037 13.472C140.213 15.104 141.669 17.408 142.405 20.384H135.157C134.773 19.232 134.117 18.336 133.189 17.696C132.293 17.024 131.173 16.688 129.829 16.688C127.909 16.688 126.389 17.392 125.269 18.8C124.149 20.176 123.589 22.144 123.589 24.704C123.589 27.232 124.149 29.2 125.269 30.608C126.389 31.984 127.909 32.672 129.829 32.672C132.549 32.672 134.325 31.456 135.157 29.024H142.405C141.669 31.904 140.213 34.192 138.037 35.888C135.861 37.584 133.141 38.432 129.877 38.432C127.317 38.432 125.045 37.872 123.061 36.752C121.077 35.6 119.525 34 118.405 31.952C117.285 29.872 116.725 27.456 116.725 24.704ZM159.136 38.432C156.576 38.432 154.272 37.872 152.224 36.752C150.176 35.6 148.56 33.984 147.376 31.904C146.224 29.824 145.648 27.424 145.648 24.704C145.648 21.984 146.24 19.584 147.424 17.504C148.64 15.424 150.288 13.824 152.368 12.704C154.448 11.552 156.768 10.976 159.328 10.976C161.888 10.976 164.208 11.552 166.288 12.704C168.368 13.824 170 15.424 171.184 17.504C172.4 19.584 173.008 21.984 173.008 24.704C173.008 27.424 172.384 29.824 171.136 31.904C169.92 33.984 168.256 35.6 166.144 36.752C164.064 37.872 161.728 38.432 159.136 38.432ZM159.136 32.576C160.352 32.576 161.488 32.288 162.544 31.712C163.632 31.104 164.496 30.208 165.136 29.024C165.776 27.84 166.096 26.4 166.096 24.704C166.096 22.176 165.424 20.24 164.08 18.896C162.768 17.52 161.152 16.832 159.232 16.832C157.312 16.832 155.696 17.52 154.384 18.896C153.104 20.24 152.464 22.176 152.464 24.704C152.464 27.232 153.088 29.184 154.336 30.56C155.616 31.904 157.216 32.576 159.136 32.576ZM210.961 11.024C214.225 11.024 216.849 12.032 218.833 14.048C220.849 16.032 221.857 18.816 221.857 22.4V38H215.137V23.312C215.137 21.232 214.609 19.648 213.553 18.56C212.497 17.44 211.057 16.88 209.233 16.88C207.409 16.88 205.953 17.44 204.865 18.56C203.809 19.648 203.281 21.232 203.281 23.312V38H196.561V23.312C196.561 21.232 196.033 19.648 194.977 18.56C193.921 17.44 192.481 16.88 190.657 16.88C188.801 16.88 187.329 17.44 186.241 18.56C185.185 19.648 184.657 21.232 184.657 23.312V38H177.937V11.408H184.657V14.624C185.521 13.504 186.625 12.624 187.969 11.984C189.345 11.344 190.849 11.024 192.481 11.024C194.561 11.024 196.417 11.472 198.049 12.368C199.681 13.232 200.945 14.48 201.841 16.112C202.705 14.576 203.953 13.344 205.585 12.416C207.249 11.488 209.041 11.024 210.961 11.024Z" fill="white"/>
<path d="M108.96 38.336C107.744 38.336 106.736 37.968 105.936 37.232C105.168 36.464 104.784 35.52 104.784 34.4C104.784 33.28 105.168 32.352 105.936 31.616C106.736 30.848 107.744 30.464 108.96 30.464C110.144 30.464 111.12 30.848 111.888 31.616C112.656 32.352 113.04 33.28 113.04 34.4C113.04 35.52 112.656 36.464 111.888 37.232C111.12 37.968 110.144 38.336 108.96 38.336Z" fill="#FFCA42"/>
</svg>
