<svg width="48" height="40" viewBox="0 0 48 40" fill="none" xmlns="http://www.w3.org/2000/svg">
<path d="M8.45419 39.5C8.02085 39.5 7.64169 39.3375 7.31669 39.0125C6.99169 38.6875 6.82919 38.3083 6.82919 37.875V35.6H6.12502C4.46994 35.6 3.06311 35.0207 1.90452 33.8622C0.745963 32.7036 0.166687 31.2967 0.166687 29.6417V16.425C0.166687 14.5833 0.726409 13.184 1.84585 12.2271C2.9653 11.2701 4.28335 10.7917 5.80002 10.7917V6.13333C5.80002 4.47222 6.32363 3.11806 7.37085 2.07083C8.41808 1.02361 9.77224 0.5 11.4334 0.5H36.6209C38.282 0.5 39.6271 1.02361 40.6563 2.07083C41.6854 3.11806 42.2 4.47222 42.2 6.13333V10.7917C43.7167 10.7917 45.0347 11.2701 46.1542 12.2271C47.2736 13.184 47.8334 14.5833 47.8334 16.425V29.6417C47.8334 31.2967 47.2541 32.7036 46.0955 33.8622C44.9369 35.0207 43.5301 35.6 41.875 35.6H41.1709V37.875C41.1709 38.3083 41.0084 38.6875 40.6834 39.0125C40.3584 39.3375 39.9792 39.5 39.5459 39.5C39.1125 39.5 38.7334 39.3375 38.4084 39.0125C38.0834 38.6875 37.9209 38.3083 37.9209 37.875V35.6H10.0792V37.875C10.0792 38.3083 9.91669 38.6875 9.59169 39.0125C9.26669 39.3375 8.88752 39.5 8.45419 39.5ZM6.12502 32.35H41.875C42.5972 32.35 43.2292 32.0792 43.7709 31.5375C44.3125 30.9958 44.5834 30.3639 44.5834 29.6417V16.425C44.5834 15.7028 44.3667 15.125 43.9334 14.6917C43.5 14.2583 42.9222 14.0417 42.2 14.0417C41.4778 14.0417 40.9 14.2583 40.4667 14.6917C40.0334 15.125 39.8167 15.7028 39.8167 16.425V25.9583H8.18335V16.425C8.18335 15.7028 7.96669 15.125 7.53335 14.6917C7.10002 14.2583 6.52224 14.0417 5.80002 14.0417C5.0778 14.0417 4.50002 14.2583 4.06669 14.6917C3.63335 15.125 3.41669 15.7028 3.41669 16.425V29.6417C3.41669 30.3639 3.68752 30.9958 4.22919 31.5375C4.77085 32.0792 5.4028 32.35 6.12502 32.35ZM11.4334 22.7083H36.5667V16.425C36.5667 15.3056 36.8195 14.3757 37.325 13.6354C37.8306 12.8951 38.3722 12.3083 38.95 11.875V6.13333C38.95 5.41111 38.7334 4.83333 38.3 4.4C37.8667 3.96667 37.2936 3.75 36.5807 3.75H11.4194C10.7065 3.75 10.1334 3.96667 9.70002 4.4C9.26669 4.83333 9.05002 5.41111 9.05002 6.13333V11.875C9.6278 12.3083 10.1695 12.8951 10.675 13.6354C11.1806 14.3757 11.4334 15.3056 11.4334 16.425V22.7083Z" fill="white"/>
</svg>
